<?xml version="1.0" encoding="UTF-8" standalone="no"?>
<!-- Created with Inkscape (http://www.inkscape.org/) -->

<svg
   width="32"
   height="32"
   viewBox="0 0 8.4666666 8.4666666"
   version="1.1"
   id="svg1"
   inkscape:version="1.4.2 (ebf0e940d0, 2025-05-08)"
   sodipodi:docname="loupe.svg"
   xmlns:inkscape="http://www.inkscape.org/namespaces/inkscape"
   xmlns:sodipodi="http://sodipodi.sourceforge.net/DTD/sodipodi-0.dtd"
   xmlns="http://www.w3.org/2000/svg"
   xmlns:svg="http://www.w3.org/2000/svg">
  <sodipodi:namedview
     id="namedview1"
     pagecolor="#505050"
     bordercolor="#eeeeee"
     borderopacity="1"
     inkscape:showpageshadow="0"
     inkscape:pageopacity="0"
     inkscape:pagecheckerboard="0"
     inkscape:deskcolor="#d1d1d1"
     inkscape:document-units="mm"
     inkscape:zoom="7.9179012"
     inkscape:cx="-0.50518438"
     inkscape:cy="-4.8623996"
     inkscape:window-width="2560"
     inkscape:window-height="1356"
     inkscape:window-x="0"
     inkscape:window-y="0"
     inkscape:window-maximized="1"
     inkscape:current-layer="layer1" />
  <defs
     id="defs1" />
  <g
     inkscape:label="Layer 1"
     inkscape:groupmode="layer"
     id="layer1">
    <path
       id="path1"
       style="baseline-shift:baseline;display:inline;overflow:visible;opacity:1;vector-effect:none;fill:#ffffff;stroke-width:0.999996;stroke-linejoin:round;stroke-dashoffset:1.88976;enable-background:accumulate;stop-color:#000000;stop-opacity:1"
       d="m 3.9799157,2.2686297 c -0.4433087,10e-8 -0.8866522,0.1682047 -1.222849,0.5043625 -0.6723938,0.672316 -0.6723937,1.7729641 0,2.4452799 0.5591035,0.5590388 1.4139872,0.6523726 2.0726538,0.281456 0.00503,0.00555 0.010191,0.010993 0.015474,0.01631 l 0.8330767,0.8330763 c 0.1895318,0.1890705 0.4963345,0.1890705 0.6858662,10e-8 0.1901857,-0.1897231 0.1901856,-0.497816 -10e-8,-0.6875391 L 5.5327333,4.8297541 C 5.5241153,4.8213396 5.5151873,4.8132485 5.5059678,4.8054979 5.8513578,4.1525807 5.7507103,3.3208744 5.2027648,2.7729922 4.8665679,2.4368344 4.4232243,2.2686297 3.9799157,2.2686297 Z m 0,0.6436269 c 0.2760279,-1e-7 0.5520074,0.106219 0.7644897,0.3186768 0.4249648,0.4249155 0.4249648,1.104064 0,1.5289794 -0.4249646,0.4249156 -1.1040147,0.4249156 -1.5289794,0 -0.4249647,-0.4249154 -0.4249647,-1.1040639 0,-1.5289794 C 3.4279084,3.0184756 3.7038878,2.9122566 3.9799157,2.9122566 Z"
       sodipodi:nodetypes="ssscccscccssssssss" />
  </g>
</svg>
