<?xml version="1.0" encoding="UTF-8" standalone="no"?>
<!-- Created with Inkscape (http://www.inkscape.org/) -->

<svg
   width="32"
   height="32"
   viewBox="0 0 8.4666666 8.4666666"
   version="1.1"
   id="svg1"
   inkscape:version="1.4.2 (ebf0e940d0, 2025-05-08)"
   sodipodi:docname="bad.svg"
   xmlns:inkscape="http://www.inkscape.org/namespaces/inkscape"
   xmlns:sodipodi="http://sodipodi.sourceforge.net/DTD/sodipodi-0.dtd"
   xmlns="http://www.w3.org/2000/svg"
   xmlns:svg="http://www.w3.org/2000/svg">
  <sodipodi:namedview
     id="namedview1"
     pagecolor="#505050"
     bordercolor="#eeeeee"
     borderopacity="1"
     inkscape:showpageshadow="0"
     inkscape:pageopacity="0"
     inkscape:pagecheckerboard="0"
     inkscape:deskcolor="#d1d1d1"
     inkscape:document-units="mm"
     inkscape:zoom="11.197603"
     inkscape:cx="-1.7860965"
     inkscape:cy="12.100804"
     inkscape:window-width="2560"
     inkscape:window-height="1356"
     inkscape:window-x="0"
     inkscape:window-y="0"
     inkscape:window-maximized="1"
     inkscape:current-layer="layer1"
     showgrid="false" />
  <defs
     id="defs1" />
  <g
     inkscape:label="Layer 1"
     inkscape:groupmode="layer"
     id="layer1">
    <path
       id="rect3"
       style="fill:#ffffff;fill-opacity:1;stroke-width:3.811;stroke-linejoin:round;stroke-dashoffset:1.88976"
       d="M 4.8186993,6.5850782 C 4.6384976,6.5823882 4.4263413,6.4519252 4.3351848,6.1091445 4.1994003,5.5985305 3.409054,5.3603911 3.2338464,4.7652105 2.9602243,4.7499685 2.6895654,4.7487585 2.3743817,4.7487585 c -0.1988911,0 -0.3590584,-0.1601763 -0.3590584,-0.3590674 V 3.1261272 c 0,-0.1989001 0.1601673,-0.3590719 0.3590584,-0.3590719 0.3118304,-0.00448 0.4219768,-0.00946 0.731624,0.026225 0.4493005,-0.2038492 1.1854702,-0.2821845 2.1558748,-0.2364538 0.2026523,0.0095 0.4064926,0.1584996 0.4567511,0.3550461 l 0.4422846,1.6692182 c 0.092717,0.3499356 -0.083262,0.50744 -0.2861654,0.50744 H 4.8087874 c 0.194202,0.3328241 0.3224819,0.7953986 0.3074237,1.2659393 -0.00448,0.1370307 -0.1385012,0.2332441 -0.2975118,0.2305991 z"
       sodipodi:nodetypes="sscsssscscsscss" />
  </g>
</svg>
