<?xml version="1.0" encoding="UTF-8" standalone="no"?>
<!-- Created with Inkscape (http://www.inkscape.org/) -->

<svg
   width="32"
   height="32"
   viewBox="0 0 8.4666666 8.4666666"
   version="1.1"
   id="svg1"
   inkscape:version="1.4.2 (ebf0e940d0, 2025-05-08)"
   sodipodi:docname="worse.svg"
   xmlns:inkscape="http://www.inkscape.org/namespaces/inkscape"
   xmlns:sodipodi="http://sodipodi.sourceforge.net/DTD/sodipodi-0.dtd"
   xmlns="http://www.w3.org/2000/svg"
   xmlns:svg="http://www.w3.org/2000/svg">
  <sodipodi:namedview
     id="namedview1"
     pagecolor="#505050"
     bordercolor="#eeeeee"
     borderopacity="1"
     inkscape:showpageshadow="0"
     inkscape:pageopacity="0"
     inkscape:pagecheckerboard="0"
     inkscape:deskcolor="#d1d1d1"
     inkscape:document-units="mm"
     inkscape:zoom="11.197603"
     inkscape:cx="4.1973269"
     inkscape:cy="-0.6697862"
     inkscape:window-width="2560"
     inkscape:window-height="1356"
     inkscape:window-x="0"
     inkscape:window-y="0"
     inkscape:window-maximized="1"
     inkscape:current-layer="layer1"
     showgrid="false" />
  <defs
     id="defs1" />
  <g
     inkscape:label="Layer 1"
     inkscape:groupmode="layer"
     id="layer1">
    <path
       id="path16"
       style="fill:#ffffff;fill-opacity:1;stroke-width:3.811;stroke-linejoin:round;stroke-dashoffset:1.88976"
       d="M 2.9662331,6.5697043 C 3.1251881,6.5674643 3.3123959,6.4522886 3.3928055,6.149918 3.4631255,5.8854925 3.7323297,5.7040156 3.9740321,5.4929088 3.9976801,5.3181509 4.0413651,5.1509259 4.0949705,4.9905583 H 3.5676214 c -0.1622764,0 -0.3454342,-0.071236 -0.4548701,-0.228689 C 3.0033198,4.604412 2.988317,4.3961931 3.0431783,4.1891678 L 3.3552047,3.0123645 C 3.1189473,3.0017245 2.8584825,3.0030645 2.5753259,3.0163845 2.3965625,3.0247945 2.2167353,3.156199 2.1723977,3.3295799 L 1.7822638,4.8019422 c -0.081791,0.3086827 0.073351,0.4476906 0.2523331,0.4476906 h 0.940358 C 2.8036439,5.5432234 2.6905332,5.9512837 2.7038192,6.3663535 2.7078427,6.4872339 2.8259692,6.571993 2.9662331,6.569655 Z M 4.4992577,6.0291764 C 4.6582126,6.0269364 4.845416,5.9117606 4.9258211,5.6093901 5.0456016,5.1589636 5.7428312,4.9488895 5.8973828,4.4238695 c 0.241367,-0.013456 0.4801458,-0.014529 0.7581794,-0.014529 0.1754462,0 0.3166803,-0.1412341 0.3166803,-0.3166848 v -1.114584 c 0,-0.1754551 -0.1412341,-0.3166848 -0.3166803,-0.3166848 C 6.380488,2.6573669 6.2833233,2.6529869 6.0101804,2.6844549 5.6138461,2.5046311 4.9643561,2.4355722 4.1083415,2.4759132 3.9295782,2.4843132 3.7497509,2.6157256 3.7054177,2.7891066 L 3.3152794,4.2614679 C 3.233493,4.5701507 3.3888312,4.7091631 3.5678136,4.7091631 H 4.5079751 C 4.3366684,5.0027536 4.2235577,5.4108095 4.2368393,5.8258838 c 0.00402,0.1208759 0.1221499,0.2056395 0.2624184,0.2033015 z" />
  </g>
</svg>
